<svg xmlns="http://www.w3.org/2000/svg" xmlns:xlink="http://www.w3.org/1999/xlink" width="1920" zoomAndPan="magnify" viewBox="0 0 1440 809.999993" height="1080" preserveAspectRatio="xMidYMid meet" version="1.0"><defs><clipPath id="3fb1093518"><path d="M 131.019531 0 L 1309 0 L 1309 810 L 131.019531 810 Z M 131.019531 0 " clip-rule="nonzero"/></clipPath><clipPath id="376f5b950e"><path d="M 1308.980469 810 L 131.019531 707.019531 L 131.019531 0 L 1308.980469 102.980469 Z M 1308.980469 810 " clip-rule="nonzero"/></clipPath><clipPath id="88420b7c33"><path d="M 0.0195312 0 L 1178 0 L 1178 810 L 0.0195312 810 Z M 0.0195312 0 " clip-rule="nonzero"/></clipPath><clipPath id="45c3a1ecfc"><path d="M 1177.980469 810 L 0.0195312 707.019531 L 0.0195312 0 L 1177.980469 102.980469 Z M 1177.980469 810 " clip-rule="nonzero"/></clipPath><clipPath id="9a82198de2"><rect x="0" width="1178" y="0" height="810"/></clipPath></defs><g clip-path="url(#3fb1093518)"><g clip-path="url(#376f5b950e)"><g transform="matrix(1, 0, 0, 1, 131, 0.000000000000039746)"><g clip-path="url(#9a82198de2)"><g clip-path="url(#88420b7c33)"><g clip-path="url(#45c3a1ecfc)"><path fill="#ff0000" d="M 0.0195312 0 L 1178.640625 0 L 1178.640625 810 L 0.0195312 810 Z M 0.0195312 0 " fill-opacity="1" fill-rule="nonzero"/></g></g></g></g></g></g></svg>